<?xml version="1.0" encoding="UTF-8" standalone="yes"?>
<svg viewBox="0 0 70 70" version="1.2" baseProfile="tiny-ps" xmlns="http://www.w3.org/2000/svg">
  <title>Queensland Government</title>
    <style>
      svg {
        fill: #000;
      }
      svg:hover {
        fill:red;
        cursor: pointer;
      }
      @media (prefers-color-scheme: dark) {
        svg {
          fill: #fff;
        }
        svg:hover {
          fill:yellow;
        }
      }
    </style>
  <g class="layer">
    <g id="svg_2" transform="translate(0 -0.303951) translate(0 -0.303951) translate(0 -0.303951) translate(0 -0.303951) translate(0 -0.303951) translate(0 -0.303951) translate(0 -0.303951) translate(0 -0.303951) translate(0 -0.303951) translate(0 -0.303951) translate(0 0.303951) translate(0 0.303951) translate(0 0.303951) translate(0 0.303951) translate(0 0.303951) translate(0 0.303951) translate(0 0.303951) translate(0 0.303951) translate(0 0.303951) translate(0 0.303951) translate(0 0.303951) translate(0 0.303951) translate(0 0.303951) translate(0 0.303951) translate(0 0.303951) translate(0 0.303951) translate(0 0.303951) translate(0 0.303951) translate(0 0.303951) translate(0 0.303951) translate(0 0.303951) translate(0 -0.303951) translate(0 -0.303951) translate(0 -0.303951) translate(0 -0.303951) translate(0 -0.303951) translate(0 -0.303951) translate(0 -0.303951) translate(0 -0.303951) translate(0 -0.303951) translate(0 -0.303951) translate(0 -0.303951) translate(0.303951 0) translate(0.303951 0) translate(0.303951 0) translate(0.303951 0) translate(-0.303951 0) translate(-0.303951 0) translate(-0.303951 0) translate(-0.303951 0) translate(-0.303951 0) translate(-0.303951 0) translate(-0.303951 0) translate(0.303951 0) translate(0.303951 0) translate(0.303951 0) translate(0.303951 0) translate(0.303951 0) translate(0.303951 0) translate(0.303951 0) translate(-0.303951 0) translate(-0.303951 0) translate(-0.303951 0) translate(0 0.303951) translate(0 0.303951) translate(0 0.303951) translate(0 0.303951) translate(0 -0.303951) translate(0.303951 0) translate(0 -0.303951) translate(0 -0.303951) translate(0.303951 0) translate(0 -0.303951) translate(0 0.303951) translate(0 0.303951) translate(0 0.303951) translate(0 0.303951) translate(-0.303951 0) translate(0 0.303951) translate(0 0.303951) translate(0.303951 0) translate(0 0.303951) translate(0 0.303951) translate(0.303951 0) translate(0 0.303951) translate(0 0.303951) translate(0.303951 0) translate(0 0.303951) translate(0 0.303951) translate(0 0.303951) translate(0.303951 0) translate(0 0.303951) translate(0.303951 0)">
      <path d="m66.21,23.49c-0.23,0.05 -0.74,0.21 -1.09,0.25c0.65,-0.63 1.05,-1.41 1.05,-2.05c-0.32,0.1 -0.87,0.31 -1.38,0.42c1.01,-0.86 1.56,-1.85 1.32,-3.18c-0.31,0.16 -0.74,0.41 -1.18,0.59c0.88,-1.36 0.87,-2.56 0.5,-3.26c-0.39,0.37 -0.87,0.8 -1.38,1.11c0.33,-1.57 0.31,-2.58 -0.35,-3.28c-0.67,1.26 -1.24,2.2 -2.19,3.33c0.07,-1.04 -0.04,-2.34 -0.72,-3.01c0,0 -0.19,1.45 -0.7,1.91c-0.12,-1.42 -0.56,-2.19 -1.2,-2.95c0,0 -0.05,1.48 -0.45,2.39c-0.34,-1.24 -0.98,-2.2 -1.79,-3.11c0.06,2.73 -0.7,7.87 -2.89,11.33c-0.26,2.05 -0.48,5.13 -3.82,6.95c-0.48,-0.34 -1.33,-0.77 -2.52,-0.7c-0.31,-1.55 1.71,-2.95 3.45,-4.08c1.77,-1.13 2.53,-2.1 2.49,-3.62c-0.04,-1.66 -1.16,-2.34 -2.33,-2.39c-1.64,-0.07 -2.98,1.42 -3.29,2.04c-0.48,0.22 -1.88,0.66 -2.46,0.81c-0.64,0.17 -1.36,0.44 -1.81,0.82c0.27,0.17 1.04,0.22 1.34,0.18c0.55,-0.08 2.33,-0.41 4.03,-0.62c0.62,0.34 1.61,0.9 0.56,1.63c-1.45,0.93 -2.07,1.17 -4.1,2.23c-3.23,1.69 -2.18,5.94 -1.39,6.25c0,1.43 1.27,4.01 2.14,4.91c0.4,1.8 -0.12,4.48 -0.67,5.59c-0.45,-1.09 -1.22,-3.62 -1.73,-5.1c0.52,-2.79 -0.32,-4.02 -0.91,-4.49c-0.59,-0.48 -1.52,-0.35 -2.12,0.62c0.93,-0.1 1.24,1.08 1.21,2.31c-0.02,1.48 -0.39,2.67 -1.42,2.67c0.08,1.27 1.44,1.62 2.12,1.02c0.1,0.28 0.65,1.93 1.17,3.41c0.3,0.88 0.6,1.68 0.8,2.11c0.21,0.47 1.78,0.53 1.96,0c0.25,-0.73 0.45,-1.27 0.84,-2.11c0.3,-0.63 0.71,-1.45 1.34,-2.66c0.42,0.73 0.98,1.88 1.31,2.66c0.15,0.37 0.25,0.65 0.26,0.79c0.13,1.2 0.06,5.47 -0.26,8.03c-3.52,-0.95 -4.51,0.76 -4.2,2.04c0.5,-0.56 1.16,-0.49 1.57,-0.19c-0.1,0.94 0.15,1.61 1.11,1.89c1.01,-2.67 4.63,-2.08 4.97,-1.85c0.02,-0.52 0.5,-1.81 -1.36,-2.08c0.07,-2.31 0.31,-5.13 0.39,-5.72c0.09,-0.59 0.15,-0.96 -0.13,-1.88c-0.08,-0.28 -0.18,-0.62 -0.28,-1.03c-0.25,-0.93 -0.5,-2.15 -0.52,-3.47c0.33,0.32 1.1,0.58 1.63,0.46c0.41,1.74 1,1.24 1.31,1.97c0.16,0.38 0.2,0.73 0.24,1.04c0.04,0.31 0.09,0.57 0.26,0.8c1.24,0.04 2.3,-0.26 3.06,-0.8c0.23,-0.16 0.44,-0.34 0.61,-0.55c-0.3,-1.85 -0.83,-2.76 -1.8,-3.89c-0.25,-1.52 -0.96,-2.91 -1.93,-4.14c1.22,-0.4 2.46,-1.39 3.12,-2.08c0.59,-0.05 1.26,-0.54 1.31,-1.49c0.34,-0.04 0.64,-0.06 0.91,-0.12c-0.03,-0.26 -0.1,-0.66 -0.14,-0.89c0.45,0 0.88,-0.02 1.3,-0.06c-0.12,-0.35 -0.28,-0.71 -0.41,-0.98c0.46,0 1.01,-0.03 1.47,-0.06c-0.24,-0.45 -0.43,-0.84 -0.57,-1.24c0.52,-0.05 1.33,-0.18 1.98,-0.33c-0.21,-0.23 -0.45,-0.45 -0.81,-0.81c1.71,-0.5 2.46,-1.7 2.54,-2.22c-0.25,0 -0.77,0.12 -1.08,0.09c0.96,-0.56 1.6,-1.34 1.7,-2.16" id="svg_3"/>
      <path d="m42.25,27.33l-21.64,0l0,7.99c0.1,0.06 0.19,0.14 0.29,0.22l0,-7.87l21.53,0l0,7.32c0.08,0.08 0.15,0.18 0.22,0.31l0,-7.97l-0.4,0" id="svg_4"/>
      <path d="m31.6,54.88c-9.55,-3.56 -10.76,-11.4 -10.8,-14.95l-0.03,-0.01l0.03,-0.25c0.01,-0.77 0.06,-1.3 0.09,-1.48c-0.03,-0.51 -0.1,-0.91 -0.19,-1.2l-0.09,-0.19l0,3.69c0,4.13 1.51,7.69 4.5,10.58c2.61,2.53 5.55,3.71 6.39,4.01l0.13,0.05l0.14,-0.05c0.83,-0.3 3.77,-1.48 6.39,-4.01c2.98,-2.89 4.49,-6.45 4.49,-10.58l0,-0.67c-0.07,0.12 -0.15,0.2 -0.23,0.29c-0.09,1.85 -0.43,4.72 -1.66,6.89c-1.48,3.04 -3.74,5.54 -9.16,7.88" id="svg_5"/>
      <path d="m14.45,5.73c1.36,0.66 1.79,-0.56 4.34,1.08c-1.69,0.53 -2.98,2.62 -4.88,2.08c1.37,-0.68 1.22,-1.67 2.01,-2.17c-0.5,-0.06 -1.49,-0.29 -1.47,-0.99zm4.89,13.53c-0.82,-0.34 -2.07,-0.55 -2.77,0.43c-0.38,-0.66 0.18,-1.66 0.53,-1.95c-1.78,0.03 -2.79,-0.52 -3.06,-1.06c0.66,-0.36 2.33,-0.96 3.69,0.04c0.94,0.68 1.42,1.02 2.54,1.38c0.4,-0.4 0.25,-0.22 0.37,-0.33c-0.91,-0.63 -1.32,-5.5 -3.11,-5.68c0.26,-0.62 1.19,-0.56 1.93,-0.36c0.06,-1.09 -0.39,-2.89 -1.07,-3.93c1.04,-0.54 1.75,0.05 2.12,1.34c0.37,1.38 -0.08,4.8 0.82,7.9l0.56,-0.52c-0.28,-1.8 1.7,-2.46 2.14,-3.36c0.17,1.21 -0.09,1.75 -0.42,2.19c0.72,0.09 1.04,0.79 0.92,1.28c-1.72,-0.25 -2.72,1.48 -2.34,2.85c-1.27,0.28 -2.15,0.07 -2.85,-0.23l0,0.01zm8.44,1c-1.49,0.08 -2.95,2.02 -2.33,4.23c-0.23,0.08 -0.87,0.07 -1.08,-0.38c-0.16,0.71 -1.62,1.54 -2.69,1.43c0.59,-0.63 0.99,-2.07 2.14,-2.82c1.15,-0.77 1.67,-1.28 2.08,-2.57c-0.54,0.24 -3.32,0.96 -4.11,0.11c1.83,-0.27 4,-1.3 5.06,-1.97l-0.42,-0.45c-1.15,0.65 -2.68,1.18 -3.45,1.42c-0.28,-2.29 1.9,-2.2 2.06,-1.58c0.9,-1.07 0.27,-2.6 -0.39,-2.77c0.67,-1.82 0,-2.95 -0.58,-3.62c-0.14,1.94 -2.3,2.25 -2.56,3.74c-0.08,-1.18 -0.16,-4.37 -0.25,-5.93c-0.17,-2.9 -3.82,-3.91 -4.38,-3.91c-2.39,0.12 -2.61,-0.19 -2.56,-1.3c-1.2,1.37 -0.8,2.6 0.23,3.19c-0.14,0.83 -1.47,1.47 -2.28,1.65c1.94,1.8 4.19,0.73 5.27,-0.29l0.23,-0.21c0.39,0.69 0.67,1.94 0.67,2.65c-1.81,-0.09 -2.14,1.31 -2.14,1.82c2.31,-0.96 2.56,3.46 3.16,4.17c-0.59,-0.04 -1.63,-1.41 -3.16,-1.5c-1.84,-0.12 -2.49,0.87 -3.24,0.83c0.14,1.3 1.72,2.03 2.75,2.19c-0.52,1.33 -0.06,2.24 1.03,2.57c0,-1.23 1.54,-1.6 3.2,-0.64c1.98,1.17 3.01,1.27 4.61,0.78c-0.27,0.57 -0.99,0.63 -1.87,1.5c-1.24,1.22 -1.28,2.81 -2.66,3.39c1.62,0.77 4.06,-0.31 4.41,-0.93c0.68,0.42 1.55,0.17 1.79,-0.25c-1.1,-2.44 0.76,-3.88 1.49,-3.85c0,0 0.32,-0.73 -0.03,-0.7" id="svg_6"/>
      <path d="m44.6,7.05c0.81,-0.59 1.33,-0.84 1.76,-1.1c0.7,0.03 1.91,-0.05 2.63,-0.42c-0.75,0.93 -0.84,1.27 -2.08,1.41c1.61,0.14 2.28,1.57 3.07,1.79c-2.67,0.82 -2.94,-1.84 -5.38,-1.68zm3.3,8c0.8,0.65 0.54,1.58 0.35,1.79c-0.7,-1.21 -2.95,-0.79 -5.16,1.7c-0.15,0.19 -0.36,0.4 -0.6,0.62c0.17,-2.98 -2.27,-3.03 -2.99,-2.73c0.08,-0.85 0.62,-1.44 0.9,-1.53c-0.72,-0.83 -0.87,-1.88 -0.95,-2.64c1.19,0.52 2.96,1.91 3.25,4.32l0.78,-0.53c-0.23,-4.19 -0.18,-4.18 -0.21,-7.03c-0.01,-0.4 0.01,-1.34 1.28,-1.24c0.05,1.06 0.22,3.88 0.16,7.8l0.45,0c0.41,-1.1 1.86,-2.38 3.54,-2.26c1.15,0.07 1.55,0.05 2.21,-0.24c-0.54,1.3 -2.5,1.88 -3.01,1.97zm-2.43,-1.47c0,-2.71 -0.1,-4.94 -0.13,-5.64l0.33,0.11c1.94,0.68 2.39,3.02 6.4,0.36c-2.15,0.26 -2.26,-1.57 -3.24,-1.61c1.48,-0.85 1.58,-2.78 1.58,-2.78c-1.25,1 -4.14,1.06 -4.7,1.4c-0.75,0.45 -1.7,1 -2.33,1.35c-1.68,0.91 -0.51,5.86 -0.68,7.67c-0.9,-2.7 -2.72,-2.29 -3.68,-3.83c-0.72,1.28 0.04,3.45 0.34,4.07c-1.04,0.84 -0.76,2.4 -0.51,2.82c0.89,-0.64 2.26,-0.47 2.68,0.59c-1.17,0.71 -3.12,0.84 -4.45,-0.45l-0.48,0.54c0.94,1.24 3.3,1.72 5.05,0.72c-0.01,0.28 -0.07,0.6 -0.18,0.95c-0.92,0.48 -2.09,0.74 -3.43,0.28c0.18,1.36 1.74,2.37 3.23,2.78c-0.5,0.39 -1.12,0.55 -1.58,0.5c0.29,0.78 0.44,1.83 -0.15,2.66c-0.74,-0.49 -1.14,-0.98 -1.42,-2.89c-0.28,-1.91 -1.66,-3.85 -2.72,-4.25c-0.06,0.68 -0.06,0.38 0.05,0.82c2.84,2.08 1.24,5.83 4.19,7.18c1.08,-1.24 1.09,-1.67 0.93,-2.84c1.07,-0.28 1.86,-1.18 2.14,-1.87c-1.01,0.48 -2.61,-0.36 -3.06,-1.02c1.76,-0.06 3.39,-1.38 5.05,-3.12c1.49,-1.56 3.47,-1.32 3.31,-0.1c1.03,-0.16 1.44,-1.56 1.1,-2.46c1.5,-0.48 2.68,-1.59 2.85,-3.33c-2.02,1.01 -4.58,-0.66 -6.49,1.39" id="svg_7"/>
      <path d="m34.54,22.81c-0.14,0 -0.26,0.07 -0.34,0.17l-0.48,-0.07l0.01,-0.86c0.15,-0.07 0.26,-0.22 0.26,-0.4c0,-0.24 -0.19,-0.44 -0.43,-0.44s-0.44,0.2 -0.44,0.44c0,0.16 0.09,0.3 0.23,0.38l-0.01,0.83l-0.46,-0.04c-0.07,-0.16 -0.22,-0.26 -0.39,-0.26c-0.24,0 -0.44,0.19 -0.44,0.44c0,0.23 0.2,0.43 0.44,0.43c0.15,0 0.29,-0.08 0.36,-0.2l0.49,0.05l-0.02,1.27c-0.14,0.07 -0.23,0.21 -0.23,0.38c0,0.24 0.19,0.44 0.43,0.44c0.24,0 0.44,-0.2 0.44,-0.44c0,-0.17 -0.1,-0.32 -0.26,-0.39l0.02,-1.21l0.41,0.06c0.06,0.17 0.22,0.29 0.41,0.29c0.24,0 0.43,-0.19 0.43,-0.43c0,-0.24 -0.19,-0.44 -0.43,-0.44" id="svg_8"/>
      <path d="m30.77,22.56c-0.17,0 -0.33,0.1 -0.4,0.26l-0.45,0.04l-0.01,-0.84c0.14,-0.07 0.23,-0.21 0.23,-0.38c0,-0.23 -0.2,-0.43 -0.43,-0.43c-0.25,0 -0.44,0.2 -0.44,0.43c0,0.18 0.11,0.34 0.26,0.4l0.01,0.87l-0.48,0.07c-0.08,-0.1 -0.2,-0.17 -0.34,-0.17c-0.24,0 -0.43,0.2 -0.43,0.44c0,0.24 0.19,0.43 0.43,0.43c0.19,0 0.35,-0.12 0.41,-0.29l0.41,-0.06l0.01,1.21c-0.15,0.07 -0.25,0.22 -0.25,0.39c0,0.24 0.19,0.44 0.43,0.44c0.24,0 0.44,-0.2 0.44,-0.44c0,-0.17 -0.1,-0.31 -0.24,-0.38l0,-1.27l0.48,-0.05c0.07,0.12 0.21,0.2 0.36,0.2c0.24,0 0.44,-0.2 0.44,-0.43c0,-0.24 -0.2,-0.44 -0.44,-0.44" id="svg_9"/>
      <path d="m31.63,26.24c-0.65,1.24 -1.85,1.2 -2.9,0.51c-0.42,-0.28 -0.85,-0.46 -1.25,-0.53c0.19,-1.21 0.49,-3.51 0.7,-5.45c1.36,-0.61 3.04,-0.76 3.45,0.81c0.41,-1.57 2.09,-1.42 3.44,-0.81c0.22,1.94 0.52,4.24 0.7,5.45c-0.39,0.07 -0.82,0.25 -1.25,0.53c-1.04,0.69 -2.25,0.73 -2.89,-0.51zm4.91,0.04c-0.26,-1.75 -0.89,-6.65 -0.97,-8.29l-0.74,0.03c0.01,0.28 0.04,0.65 0.07,1.08c-0.89,-0.26 -2.07,-0.45 -3.27,-0.45c-1.2,0 -2.38,0.19 -3.27,0.45c0.03,-0.43 0.06,-0.79 0.08,-1.08l-0.75,-0.03c-0.08,1.64 -0.71,6.54 -0.97,8.29c-0.45,0.18 -0.74,0.62 -0.74,1.42c0,0 4.08,0.06 5.65,0.06c1.58,0 5.64,-0.06 5.64,-0.06c0,-0.8 -0.29,-1.24 -0.73,-1.42" id="svg_10"/>
      <path d="m53.61,61.25l-43.95,0c-0.2,-1.4 -0.47,-2.3 -0.71,-3.06l45.36,0c-0.24,0.76 -0.51,1.66 -0.7,3.06zm-29.79,-9.41c0.4,0.6 0.79,1.04 0.97,1.52c0.2,0.5 0.07,0.8 -0.3,1.32c-0.83,1.17 -2.28,2.17 -3.42,2.79l-4.4,0c2.77,-0.78 6.51,-3.15 7.15,-5.63zm-2.67,-0.81c0.36,-0.67 1.23,-0.88 1.82,-0.09c0.26,0.34 0.15,1.24 -0.89,2.37c-0.75,-0.69 -1.31,-1.57 -0.93,-2.28zm17.56,3.65c-0.37,-0.52 -0.49,-0.82 -0.3,-1.32c0.19,-0.48 0.57,-0.92 0.98,-1.52c0.63,2.48 4.38,4.85 7.14,5.64l-4.4,0c-1.14,-0.63 -2.58,-1.63 -3.42,-2.8zm1.52,-3.74c0.6,-0.79 1.46,-0.58 1.83,0.09c0.38,0.71 -0.18,1.58 -0.93,2.27c-1.04,-1.12 -1.15,-2.02 -0.9,-2.36zm14.25,6.31c-0.47,0.14 -1.04,0.23 -1.9,0.23l-1.06,0c-3.66,-0.07 -7.42,-1.16 -9.72,-3.52c3.18,-3.21 -0.56,-5.85 -2.58,-3.13c-0.63,0.85 -1.14,1.45 -1.58,2.28c-0.35,0.66 -0.08,1.33 0.71,2.36c0.43,0.56 1.51,1.43 2.39,2.01l-18.27,0c0.88,-0.58 1.95,-1.45 2.39,-2.01c0.79,-1.03 1.06,-1.7 0.71,-2.36c-0.44,-0.83 -0.95,-1.43 -1.58,-2.28c-2.02,-2.72 -5.76,-0.08 -2.58,3.13c-2.3,2.36 -6.06,3.45 -9.72,3.52l-1.01,0c-0.85,0 -1.43,-0.09 -1.89,-0.23c-0.76,-0.18 -0.93,0.14 -0.52,1.45c0.28,0.87 0.5,2.29 0.6,3.26l45.53,0c0.09,-0.97 0.32,-2.39 0.6,-3.26c0.4,-1.31 0.24,-1.63 -0.52,-1.45" id="svg_11"/>
      <path d="m14.91,60.12l-0.01,-0.02l0.32,-0.87l0.02,-0.02l0.01,0.02l0.33,0.87l-0.02,0.02l-0.65,0zm0.7,0.13l0.03,0.02l0.12,0.32l-0.02,0.07l-0.04,0.02l0.08,0.02l0.49,0l0.12,-0.02l-0.03,-0.03l-0.11,0c-0.06,-0.02 -0.13,-0.05 -0.23,-0.29c-0.17,-0.39 -0.59,-1.45 -0.65,-1.6l-0.06,-0.08l-0.08,0.1l-0.65,1.64c-0.05,0.13 -0.1,0.21 -0.22,0.23l-0.08,0l-0.03,0.03l0.04,0.02l0.31,0l0.28,0l0.04,-0.02l-0.04,-0.03l-0.04,0c-0.08,0 -0.1,-0.03 -0.1,-0.08l0.04,-0.15l0.05,-0.15l0.03,-0.02l0.75,0" id="svg_12"/>
      <path d="m16.91,59.87c0,0.37 0.1,0.57 0.24,0.69c0.19,0.17 0.43,0.18 0.57,0.18c0.17,0 0.36,-0.03 0.54,-0.19c0.22,-0.18 0.25,-0.49 0.25,-0.78l0,-0.28l0.01,-0.55c0,-0.09 0.02,-0.14 0.09,-0.15l0.08,-0.01l0.04,-0.02l-0.05,-0.02l-0.3,0l-0.29,0l-0.06,0.02l0.05,0.02l0.09,0.01c0.08,0.02 0.1,0.06 0.11,0.15l0,0.55l0,0.33c0,0.27 0,0.5 -0.14,0.64c-0.11,0.11 -0.25,0.15 -0.37,0.15c-0.08,0 -0.2,-0.02 -0.32,-0.11c-0.13,-0.11 -0.2,-0.27 -0.2,-0.64l0,-0.37l0,-0.55c0.01,-0.09 0.03,-0.14 0.1,-0.15l0.08,0l0.04,-0.03l-0.06,-0.02l-0.32,0l-0.38,0l-0.06,0.02l0.04,0.03l0.11,0c0.08,0.02 0.1,0.06 0.11,0.15l0.01,0.55l0,0.38" id="svg_13"/>
      <path d="m19.94,59.45l0,-0.53l0.03,-0.05l0.17,-0.02c0.21,0 0.5,0.04 0.74,0.27c0.12,0.1 0.25,0.32 0.25,0.65c0,0.27 -0.05,0.5 -0.22,0.65c-0.15,0.13 -0.33,0.18 -0.59,0.18c-0.21,0 -0.31,-0.05 -0.35,-0.1l-0.03,-0.2l0,-0.52l0,-0.34l0,0.01zm-0.33,0.5c0,0.24 0,0.44 -0.01,0.55c-0.01,0.08 -0.02,0.13 -0.08,0.15l-0.09,0l-0.04,0.03l0.05,0.02l0.33,0l0.56,0.03c0.48,0 0.75,-0.19 0.87,-0.31c0.15,-0.15 0.28,-0.4 0.28,-0.73c0,-0.31 -0.12,-0.52 -0.25,-0.66c-0.28,-0.29 -0.72,-0.29 -1.04,-0.29l-0.4,0l-0.38,0l-0.06,0.02l0.04,0.02l0.11,0.01c0.09,0.02 0.1,0.06 0.11,0.15l0.01,0.55l0,0.45" id="svg_14"/>
      <path d="m22.49,60.12l-0.01,-0.02l0.33,-0.87l0.01,-0.02l0.02,0.02l0.32,0.87l-0.02,0.02l-0.65,0zm0.7,0.13l0.03,0.02l0.12,0.32l-0.03,0.07l-0.03,0.02l0.08,0.02l0.49,0l0.12,-0.02l-0.03,-0.03l-0.11,0c-0.06,-0.02 -0.13,-0.05 -0.23,-0.29c-0.17,-0.39 -0.58,-1.45 -0.65,-1.6l-0.06,-0.08l-0.07,0.1l-0.66,1.64c-0.05,0.13 -0.1,0.21 -0.22,0.23l-0.08,0l-0.03,0.03l0.05,0.02l0.3,0l0.28,0l0.04,-0.02l-0.04,-0.03l-0.04,0c-0.07,0 -0.1,-0.03 -0.1,-0.08l0.04,-0.15l0.05,-0.15l0.03,-0.02l0.75,0" id="svg_15"/>
      <path d="m25.74,59c0.08,-0.12 0.13,-0.19 0.19,-0.2l0.09,-0.02l0.04,-0.02l-0.04,-0.02l-0.26,0l-0.26,0l-0.05,0.02l0.03,0.02l0.08,0.01l0.05,0.04l-0.03,0.11l-0.36,0.54l-0.33,-0.57l-0.02,-0.08l0.03,-0.04l0.07,-0.01l0.04,-0.02l-0.05,-0.02l-0.28,0l-0.4,0l-0.05,0.02l0.02,0.02l0.11,0.02c0.1,0.03 0.16,0.09 0.22,0.2l0.45,0.74l-0.5,0.71c-0.09,0.12 -0.14,0.17 -0.21,0.19l-0.1,0.02l-0.04,0.02l0.04,0.02l0.05,0l0.21,0l0.25,0l0.05,0l0.05,-0.02l-0.03,-0.02l-0.06,-0.01l-0.05,-0.04l0.03,-0.11l0.39,-0.62l0.41,0.7l0,0.06l-0.04,0.03l0.09,0.03l0.47,0l0.07,0l0.05,-0.02l-0.03,-0.02l-0.1,-0.02c-0.07,-0.02 -0.11,-0.05 -0.15,-0.11c-0.06,-0.08 -0.49,-0.79 -0.57,-0.91l0.43,-0.62" id="svg_16"/>
      <path d="m29.29,60.12l-0.01,-0.02l0.32,-0.87l0.02,-0.02l0.01,0.02l0.34,0.88l-0.02,0.01l-0.66,0zm0.71,0.13l0.02,0.02l0.12,0.32l-0.03,0.07l-0.03,0.02l0.08,0.02l0.49,0l0.12,-0.02l-0.04,-0.03l-0.1,0c-0.06,-0.02 -0.14,-0.05 -0.23,-0.29c-0.17,-0.39 -0.59,-1.45 -0.65,-1.6l-0.07,-0.08l-0.07,0.1l-0.65,1.64c-0.05,0.13 -0.1,0.21 -0.23,0.23l-0.07,0l-0.03,0.03l0.05,0.02l0.3,0l0.28,0l0.04,-0.02l-0.04,-0.03l-0.03,0c-0.09,0 -0.11,-0.03 -0.11,-0.08l0.04,-0.15l0.05,-0.15l0.03,-0.02l0.76,0" id="svg_17"/>
      <path d="m31.59,59.95c0,0.24 0,0.44 -0.01,0.55c-0.01,0.08 -0.02,0.13 -0.07,0.15l-0.1,0l-0.04,0.03l0.05,0.02l0.33,0l0.41,0l0.05,-0.02l-0.04,-0.03l-0.13,0c-0.08,-0.02 -0.1,-0.07 -0.11,-0.15c-0.01,-0.11 -0.01,-0.32 -0.01,-0.55l0,-1.07l0.33,0.01c0.23,0 0.3,0.07 0.31,0.15l0,0.02l0.02,0.05l0.03,-0.04l0.01,-0.3l-0.02,-0.05l-0.25,0.02l-1.04,0l-0.26,-0.01l-0.11,-0.03l-0.03,0.05l-0.05,0.3l0.02,0.04l0.03,-0.03l0.04,-0.09c0.04,-0.06 0.1,-0.07 0.26,-0.08l0.38,-0.01l0,1.07" id="svg_18"/>
      <path d="m36.12,59.74l0.02,-0.03l0.39,0.02c0.08,0 0.11,0.05 0.13,0.09l0.02,0.08l0.02,0.03l0.02,-0.05l0.01,-0.19l0.03,-0.16l-0.02,-0.02l-0.03,0.03l-0.12,0.04l-0.11,0l-0.34,0.01l-0.02,-0.03l0,-0.65l0.03,-0.04l0.4,0.01c0.1,0 0.15,0.05 0.17,0.08l0.02,0.1l0.02,0.04l0.03,-0.03l0.01,-0.22l0.02,-0.11l-0.02,-0.03l-0.04,0.02l-0.1,0.01l-0.69,0l-0.37,0l-0.06,0.02l0.04,0.02l0.1,0.01c0.09,0.02 0.1,0.06 0.11,0.15l0.01,0.55l0,0.46c0,0.25 0,0.45 -0.02,0.55c-0.01,0.08 -0.02,0.14 -0.07,0.15l-0.1,0.01l-0.04,0.02l0.06,0.02l0.33,0l0.39,0l0.06,-0.02l-0.04,-0.02l-0.13,-0.01c-0.08,-0.01 -0.1,-0.07 -0.1,-0.15c-0.02,-0.1 -0.02,-0.3 -0.02,-0.55l0,-0.21" id="svg_19"/>
      <path d="m37.79,59.95l-0.01,0.57c-0.01,0.07 -0.03,0.11 -0.08,0.12l-0.09,0.01l-0.04,0.03l0.05,0.02l0.33,0l0.41,0l0.04,-0.02l-0.04,-0.03l-0.13,-0.01c-0.08,-0.01 -0.1,-0.05 -0.1,-0.12l-0.01,-0.58l0,-0.45l0,-0.55c0.01,-0.09 0.02,-0.14 0.1,-0.15l0.07,-0.01l0.05,-0.03l-0.06,-0.02l-0.32,0.01l-0.33,-0.01l-0.07,0.02l0.05,0.03l0.09,0.01c0.05,0.01 0.08,0.06 0.09,0.15l0,0.55l0,0.45" id="svg_20"/>
      <path d="m39.67,59.45l0,-0.53l0.04,-0.05l0.16,-0.02c0.21,0 0.51,0.04 0.75,0.27c0.11,0.1 0.24,0.32 0.24,0.65c0,0.27 -0.05,0.5 -0.21,0.65c-0.16,0.13 -0.34,0.18 -0.6,0.18c-0.21,0 -0.31,-0.05 -0.34,-0.1l-0.03,-0.2l-0.01,-0.52l0,-0.34l0,0.01zm-0.32,0.5c0,0.24 0,0.44 -0.02,0.55c-0.01,0.08 -0.02,0.13 -0.07,0.15l-0.1,0l-0.04,0.03l0.05,0.02l0.33,0l0.56,0.03c0.48,0 0.75,-0.19 0.87,-0.31c0.14,-0.15 0.28,-0.4 0.28,-0.73c0,-0.31 -0.12,-0.52 -0.25,-0.66c-0.28,-0.29 -0.72,-0.29 -1.05,-0.29l-0.39,0l-0.38,0l-0.06,0.02l0.05,0.02l0.1,0.01c0.08,0.02 0.1,0.06 0.11,0.15l0.01,0.55l0,0.45" id="svg_21"/>
      <path d="m42.13,59.95l-0.01,0.55c-0.02,0.08 -0.03,0.13 -0.08,0.15l-0.09,0l-0.05,0.03l0.06,0.02l0.32,0l0.73,0.01c0.09,0 0.12,0 0.13,-0.07l0.04,-0.29l-0.02,-0.05l-0.03,0.04c-0.02,0.11 -0.05,0.17 -0.12,0.2c-0.07,0.03 -0.17,0.03 -0.24,0.03c-0.27,0 -0.31,-0.04 -0.31,-0.22l0,-0.61l0.01,-0.02l0.37,0c0.1,0.01 0.14,0.05 0.15,0.1l0.01,0.1l0.02,0.02l0.02,-0.05l0.01,-0.17l0.03,-0.19l-0.02,-0.02l-0.04,0.03l-0.13,0.04l-0.41,0.01l-0.03,-0.03l0,-0.66l0.03,-0.03l0.36,0.01c0.13,0.02 0.16,0.05 0.18,0.1l0.01,0.09l0.03,0.04l0.02,-0.03l0.01,-0.17l0.03,-0.17l-0.02,-0.03l-0.04,0.02l-0.11,0.01l-0.66,0l-0.37,0l-0.06,0.02l0.05,0.03l0.1,0c0.08,0.02 0.11,0.06 0.11,0.15l0,0.55l0,0.46" id="svg_22"/>
      <path d="m44.48,59.49l0,-0.55c0,-0.09 0.03,-0.14 0.09,-0.15l0.11,-0.01l0.04,-0.02l-0.05,-0.02l-0.36,0l-0.35,0l-0.06,0.02l0.04,0.02l0.09,0.01c0.09,0.02 0.1,0.06 0.11,0.15l0.01,0.55l0,0.46c0,0.24 0,0.44 -0.02,0.55c0,0.08 -0.02,0.13 -0.07,0.15l-0.09,0l-0.05,0.03l0.06,0.02l0.32,0l0.76,0.01c0.14,0 0.15,-0.01 0.17,-0.07l0.03,-0.3l-0.02,-0.04l-0.02,0.04l-0.07,0.15c-0.07,0.07 -0.17,0.07 -0.31,0.07c-0.2,0 -0.27,-0.01 -0.31,-0.05c-0.06,-0.05 -0.06,-0.23 -0.06,-0.56l0,-0.46" id="svg_23"/>
      <path d="m46.1,59.95l-0.01,0.57c-0.01,0.07 -0.03,0.11 -0.08,0.12l-0.09,0.01l-0.04,0.03l0.05,0.02l0.33,0l0.41,0l0.05,-0.02l-0.05,-0.03l-0.13,-0.01c-0.08,-0.01 -0.1,-0.05 -0.11,-0.12c-0.01,-0.12 -0.01,-0.32 -0.01,-0.58l0,-0.45l0.01,-0.55c0,-0.09 0.03,-0.14 0.1,-0.15l0.07,-0.01l0.04,-0.03l-0.05,-0.02l-0.32,0.01l-0.34,-0.01l-0.06,0.02l0.04,0.03l0.1,0.01c0.05,0.01 0.08,0.06 0.08,0.15l0.01,0.55l0,0.45" id="svg_24"/>
      <path d="m47.89,60.74c0.14,0 0.29,-0.03 0.42,-0.11c0.19,-0.12 0.24,-0.3 0.24,-0.45c0,-0.25 -0.11,-0.42 -0.43,-0.66l-0.07,-0.06c-0.21,-0.16 -0.28,-0.26 -0.28,-0.38c0,-0.15 0.12,-0.26 0.32,-0.26c0.16,0 0.24,0.08 0.28,0.13c0.06,0.06 0.07,0.14 0.07,0.17l0.02,0.04l0.03,-0.08l0.01,-0.31l-0.03,-0.03c-0.07,-0.02 -0.18,-0.04 -0.35,-0.04c-0.36,0 -0.6,0.2 -0.6,0.49c0,0.21 0.1,0.39 0.38,0.62l0.13,0.09c0.21,0.17 0.25,0.29 0.25,0.42c0,0.13 -0.11,0.29 -0.35,0.29c-0.16,0 -0.32,-0.07 -0.37,-0.26l-0.03,-0.13l-0.02,-0.05l-0.03,0.07l-0.02,0.34l0.05,0.09c0.11,0.05 0.23,0.06 0.38,0.06" id="svg_25"/>
      <path d="m31.63,15.27c-1.36,0 -2.9,0.32 -4.08,0.84c0.02,-0.26 0.11,-0.49 0.28,-0.69c0.69,-0.83 2.47,-1.12 3.8,-1.12s3.12,0.29 3.8,1.12c0.17,0.2 0.26,0.43 0.28,0.69c-1.18,-0.52 -2.7,-0.84 -4.08,-0.84zm2.32,1.92l-0.42,-0.97c0.64,0.12 1.25,0.31 1.79,0.54l0.25,1c-0.4,-0.16 -0.95,-0.39 -1.62,-0.57zm-3.99,-0.15l-0.73,-0.71c0.6,-0.15 1.22,-0.25 1.83,-0.29l0.44,0.84c-0.55,0.01 -1.07,0.07 -1.54,0.16zm-2.36,0.76l-0.21,0.08c-0.29,0.12 -0.49,0.03 -0.56,-0.11c-0.08,-0.16 -0.03,-0.4 0.33,-0.63l0.15,-0.08l0.69,0.57l-0.4,0.17zm4.03,-5.12l0.98,0.71c-0.42,-0.04 -0.77,-0.05 -0.98,-0.05c-0.21,0 -0.56,0.01 -0.98,0.05l0.98,-0.71zm-1.12,-2.6c-0.4,-0.87 -0.51,-2.01 0.73,-1.46l0.09,1.46l-0.82,0zm0.94,-3.15l0.18,0.12l0.18,-0.12l0.71,-0.52l-0.41,1.38l-0.04,0.01c-0.07,-0.17 -0.24,-0.29 -0.44,-0.29c-0.2,0 -0.36,0.12 -0.44,0.29l-0.04,-0.01l-0.41,-1.38l0.71,0.52zm1.06,5.63l-0.7,-0.5l-0.18,-0.13l-0.18,0.13l-0.7,0.5l0.46,-1.47l0.84,0l0.46,1.47zm0.24,-2.48l-0.82,0l0.09,-1.46c1.24,-0.55 1.13,0.59 0.73,1.46zm-4.13,0.34l0.5,-0.69l0.13,-0.19l-0.13,-0.17l-0.5,-0.7l1.03,0.32c0.06,0.45 0.16,0.75 0.28,1.03l-1.31,0.4zm4.99,-1.43l1.04,-0.32l-0.51,0.7l-0.13,0.17l0.13,0.19l0.51,0.69l-1.32,-0.4c0.12,-0.28 0.22,-0.58 0.28,-1.03zm6.46,-1.79c0.03,-0.39 -0.7,-0.69 -0.88,-0.7c-0.3,-0.03 -0.69,0.61 -1.08,1.01c-0.35,-1.87 -0.17,-2.67 0.02,-3.5c0.79,1.44 1.86,1.74 2.42,1.67c-1.89,-1.51 -1.57,-2.89 -2.15,-2.97c-0.32,-0.03 -0.56,-0.01 -0.73,-0.01c-0.66,0 -0.76,1.29 -0.84,1.88c-0.43,-0.8 -0.86,-1.47 -1.59,-2.4c-0.7,-1.8 -1.56,-1.35 -2.43,-2.16c0.68,1.03 0.13,1.66 1.7,2.4c0.41,0.39 0.89,1 1.21,1.49c-0.27,0.35 -0.44,0.55 -0.69,0.79c-0.19,0.29 -0.29,1.4 -0.9,2.25c0.9,-0.4 1.25,-0.94 1.57,-1.48c2.84,2.14 0.54,7.61 -0.12,8.81c-0.62,-0.42 -1.42,-0.66 -2.15,-0.79l-0.08,-0.24l-0.66,-2.16l0.31,0c0.35,0 0.43,-0.24 0.38,-0.43l1.95,0.61l0.87,0.26l-0.53,-0.73l-0.91,-1.26l0.91,-1.25l0.53,-0.74l-0.87,0.27l-1.76,0.54c-0.12,-0.4 -0.45,-0.59 -0.81,-0.64l0.59,-2l0.26,-0.85l-0.73,0.52l-1.25,0.91l-1.26,-0.91l-0.72,-0.52l0.26,0.85l0.59,2c-0.35,0.05 -0.69,0.24 -0.81,0.64l-1.77,-0.54l-0.86,-0.27l0.53,0.74l0.91,1.25l-0.91,1.26l-0.53,0.73l0.86,-0.26l1.97,-0.61c-0.06,0.19 0.02,0.43 0.38,0.43l0.3,0l-0.66,2.16l-0.08,0.24c-0.75,0.13 -1.57,0.38 -2.2,0.82c-1.91,-3.7 -1.37,-7.45 0.24,-8.7c-0.03,0.79 0.65,1.85 0.98,2.08c-0.21,-0.82 0.15,-2.27 -0.27,-2.63c-0.29,-0.25 -0.74,-0.38 -1.22,-0.36c0.32,-0.54 0.77,-1.21 1.53,-2.21c1.13,-0.53 1.45,-1.84 1.73,-2.5c-1.23,0.45 -2.12,1.08 -2.32,2.11c-0.43,0.57 -0.91,1.25 -1.45,2.05c0.03,-0.97 -0.5,-1.31 -1.21,-1.36c-2.06,0.43 -1.9,1.92 -3.67,2.95c1.2,0.42 3.1,-2.24 3.75,-1.94c0.1,1.63 -0.27,2.91 -0.27,3.79c-0.31,-0.34 -0.47,-0.57 -0.73,-0.62c-0.25,-0.04 -0.94,0.02 -1.42,0.54c-0.13,0.82 -0.1,2.37 -0.87,4.23c1.15,-1.06 1.7,-3.12 1.88,-3.72c0.3,0.4 0.62,1.29 0.69,2.06c0.14,1.48 1.05,3.95 1.82,5.14c-0.21,0.41 -0.27,0.87 -0.2,1.38c-0.6,0.45 -0.67,1.08 -0.46,1.5c0.22,0.44 0.82,0.75 1.51,0.47l0.22,-0.08c0.73,-0.31 2.09,-0.87 3.74,-0.87c1.65,0 3.02,0.57 3.75,0.87l0.22,0.08c0.69,0.28 1.28,-0.03 1.5,-0.47c0.22,-0.42 0.15,-1.05 -0.46,-1.5c0.09,-0.55 0,-1.05 -0.25,-1.48l0.02,0.02c1.41,-2.01 1.5,-5.85 2.67,-6.94c0.1,1.34 0.82,2.46 1.52,2.61c-0.57,-0.93 -0.57,-2.77 -0.52,-3.61" id="svg_26"/>
      <path d="m22.25,38.48l-0.87,0.01c-0.13,1.51 -0.07,2.89 0.14,4.14c0.54,-0.89 1.07,-1.78 1.05,-2.41c-0.03,-0.64 -0.18,-1.22 -0.32,-1.74" id="svg_27"/>
      <path d="m25.34,41.09c0.3,0.83 0.66,2.15 0.96,3.07c-0.26,0.02 -0.51,0.04 -0.74,0.07c-0.13,-0.33 -0.57,-1.42 -1.01,-2.47c-0.42,-0.99 0.58,-1.25 0.79,-0.67zm1.82,-0.89c0.07,-0.48 1.46,-0.58 1.2,0.5c-0.26,1.09 -0.59,2.35 -0.84,3.44l-0.36,0l-0.35,0c-0.25,-1.09 -0.58,-2.35 -0.84,-3.44c-0.26,-1.08 1.12,-0.98 1.19,-0.5zm2.62,1.56c-0.45,1.05 -0.88,2.14 -1.01,2.47c-0.23,-0.03 -0.49,-0.05 -0.75,-0.07c0.3,-0.92 0.66,-2.24 0.97,-3.07c0.21,-0.58 1.2,-0.32 0.79,0.67zm-4.43,3.08c0.29,-0.11 1.46,-0.16 1.81,-0.16c0.35,0 1.52,0.05 1.82,0.16c0.03,0.16 0.03,0.38 0.01,0.54c-0.45,0.13 -1.24,0.19 -1.83,0.19c-0.59,0 -1.37,-0.06 -1.82,-0.19c-0.03,-0.16 -0.03,-0.38 0.01,-0.54zm3.26,3.43c-0.39,0.09 -1.02,0.13 -1.45,0.13c-0.42,0 -1.05,-0.04 -1.44,-0.13l0.15,-0.64c-0.3,-0.03 -0.6,-0.15 -0.84,-0.23c0.12,-0.42 0.31,-0.85 0.47,-1.43c0.54,0.11 1.06,0.16 1.66,0.16c0.61,0 1.13,-0.05 1.66,-0.16c0.16,0.58 0.35,1.01 0.48,1.43c-0.24,0.08 -0.55,0.2 -0.84,0.23l0.15,0.64zm-5.98,-9.8c0.15,0.52 0.29,1.1 0.31,1.74c0.03,0.74 -0.52,1.65 -1.1,2.61l-0.2,0.33c1.67,8.25 9.65,11 9.65,11l0,-15.66s-6.01,-0.02 -8.66,-0.01" id="svg_28"/>
      <path d="m40.04,40.02l-0.02,-0.39l0.39,0c0.53,-0.01 0.79,-0.51 0.93,-1.11c-2.05,-0.01 -9.38,0.02 -9.38,0.02l0,7.56c0.61,-0.45 1.2,-0.83 1.97,-1.07l0,-1.66l0.76,0c0.04,-1.83 0.48,-3.15 1.33,-4.02l0.25,-0.26l0.24,0.26c0.86,0.87 1.29,2.19 1.33,4.02l0.8,0l0,1.77c0.83,0.35 1.4,0.88 1.83,1.44c0.69,-1.4 1.2,-3.04 1.38,-4.92l-0.11,0c-0.79,0 -1.62,-0.56 -1.7,-1.64" id="svg_29"/>
      <path d="m41.87,38.54l-0.15,-0.01c-0.19,0.86 -0.58,1.46 -1.31,1.47c0.06,0.86 0.71,1.3 1.33,1.3l0.15,-0.03c0.06,-0.86 0.07,-1.76 -0.02,-2.73" id="svg_30"/>
      <path d="m38.08,48.33l-0.66,-0.76l-1.14,1.01l0.47,0.53s0.48,-0.22 0.9,0.27c-0.32,0.28 -0.87,0.76 -1.19,1.03c-0.42,-0.49 -0.13,-0.92 -0.13,-0.92l-0.46,-0.53l-1.39,1.23l-0.45,-0.52l1.42,-1.19l-0.51,-0.58l-0.46,0.4c-0.41,-0.47 -0.72,-1.09 -0.43,-1.86c0.81,-0.19 1.38,0.21 1.78,0.68l-0.46,0.41l0.51,0.59l1.17,-0.97l-0.67,-0.77c0.61,-0.07 1.13,0.14 1.43,0.48c0.29,0.34 0.43,0.89 0.27,1.47zm-1.81,-2.92c-2.23,0 -3.09,0.62 -4.31,1.55l0,7.23s5.28,-1.81 8.15,-6.91c-0.66,-0.99 -1.63,-1.87 -3.85,-1.87" id="svg_31"/>
      <path d="m23.2,32.34c1.11,-0.63 1.69,-1.1 2.28,-2.02c-0.44,-0.21 -0.96,-0.61 -1.34,-1.14c2.11,0.59 3.18,0.9 5.66,0.01c-0.41,0.65 -1.01,1.03 -1.51,1.35c0.56,0.93 1.12,1.99 1.32,2.84c-0.75,-0.06 -1.59,0.12 -2.19,0.67c-0.94,0.05 -2.11,0.34 -2.76,-1.77c-0.33,0.17 -0.67,0.4 -0.67,0.4c0.38,1.37 1.08,2.31 2.94,2.12c0.1,0.43 0.18,0.69 0.4,1.06c-0.76,0.44 -2.67,1.57 -4.13,0.27l0,-3.79zm6.98,3.11c-0.19,0.28 -1.39,0.64 -1.68,0.46c-0.5,-0.31 -0.75,-0.96 -0.63,-1.24c0.14,-0.36 1.46,-0.73 1.88,-0.59c0.42,0.14 0.6,1.13 0.43,1.37zm3.56,-1.59l0,-0.4l-0.93,-0.01c0.22,-0.98 2.14,-2.23 3,-2.53c-0.05,-1.06 1.35,-1.42 2.48,-1.45c1.4,-0.03 1.73,1.47 1.73,1.93c0,0.62 -0.16,1.99 -0.94,2.42c-1.12,0.61 -2.08,-0.24 -2.08,-1.01c0,-0.85 0.58,-1.34 1.6,-1.23c1.01,0.11 0.93,-0.45 0.17,-0.65c-0.38,-0.09 -1.98,-0.17 -2.52,1.02c-0.3,0.01 -0.63,-0.11 -0.83,-0.3c-0.21,0.27 -0.53,0.45 -0.98,0.58c0.39,0.79 1.19,0.66 1.67,0.28l-0.02,0.34c0,1.95 2.08,2.44 3.35,1.71c-0.21,0.63 -0.11,1.43 -0.02,1.97l-5.04,0c0.09,-0.54 0.76,-1.15 1.32,-1.55l-0.44,-0.7c-0.55,0.24 -1.06,0.46 -1.65,0.61c-1.4,0.36 -1.32,-0.63 0.13,-1.03zm-12.06,0.74c0.56,0.46 0.77,0.8 0.6,2.35c-0.03,0.2 0.08,0.56 0.19,0.95l18.97,0c0.02,-0.2 0.03,-0.41 0.03,-0.58c0.02,-0.85 -0.14,-1.53 -0.41,-1.81c-0.09,-0.09 -0.19,-0.13 -0.37,-0.13l-0.03,0l-0.75,0.08l0.4,-0.65c0.39,-0.63 0.96,-1 1.56,-1.04l0,-5.63l-20.45,0l0,6.28l0.21,0.13l0.05,0.05" id="svg_32"/>
      <path d="m21.42,34.86l0,3.04l0.67,0c-0.12,-0.4 -0.21,-0.75 -0.18,-0.99c0.17,-1.54 -0.06,-1.7 -0.49,-2.05" id="svg_33"/>
      <path d="m41.87,37.9l0,-3.77c-0.44,0.04 -0.9,0.32 -1.25,0.88l0.11,-0.01c0.84,0 1.13,1.15 1.11,2.33c0,0.2 -0.01,0.39 -0.03,0.57l0.06,0" id="svg_34"/>
      <path d="m26.39,32.73c0.35,0.17 0.79,-0.03 1.24,0.03c-0.09,-0.19 -0.19,-0.34 -0.13,-0.62c0.11,-0.55 -0.32,-0.69 -0.53,-0.67c-0.52,0.03 -0.81,0.14 -1.34,0c0.37,0.36 0.27,1.03 0.76,1.26" id="svg_35"/>
      <path d="m21.94,36.88c0.18,-1.58 -0.07,-1.7 -0.52,-2.07c-0.39,-0.32 -1.04,-0.43 -1.69,-0.87c-0.46,-0.32 -0.59,-0.79 -1.18,-1.41c0.12,-1.32 1.07,-2.94 1.76,-3.31c0.11,-0.05 0.07,-2.1 0.07,-2.1s0.46,-0.02 0.42,-0.05c-0.62,-0.38 -1.38,-0.09 -1.92,0.55c-0.53,0.42 -1.74,1.24 -2.57,1.52c-1.14,-0.95 -2.9,-1.79 -4.18,-3.08c0,0 1.7,-0.02 2.49,-0.34c0.21,-0.13 0.75,-1 0.53,-1.83c-0.26,-0.09 -0.64,-0.29 -1.02,-0.5c-0.47,-0.27 -0.92,-0.55 -1.13,-0.71c-0.74,-0.56 -1.04,-1.05 -2.32,-1.37c0.09,-0.59 0.21,-0.45 0.78,-0.83c0.71,-0.49 1.11,-1.07 1.4,-1.64c0.23,-0.46 -0.03,-1.38 -0.6,-0.21c-0.2,0.42 -0.76,0.98 -1.39,1.14c0.04,-0.36 0.07,-0.57 0.07,-0.77c1.86,-1.32 1.68,-2.49 1.54,-3.58c-0.08,-0.63 -0.71,-0.9 -0.69,-0.24c0.02,0.44 0.41,1.67 -0.87,2.4c-0.03,-0.54 -0.18,-0.8 -0.29,-1.08c1.14,-1.5 0.66,-2.95 0.18,-3.61c-0.31,-0.42 -1.06,-0.57 -0.72,0.1c0.28,0.55 0.73,2.03 -0.11,2.64c-0.29,-0.36 -0.63,-0.51 -0.75,-1c0.09,-1.63 -0.01,-2.63 -0.22,-3.2c-0.2,-0.55 -0.72,-0.89 -0.67,-0.08c0.04,0.9 0.12,2.04 0.04,2.11c-0.09,0.07 -1.29,-1.05 -1.79,-1.38c-0.49,-0.35 -1.08,-0.22 -0.5,0.46c0.51,0.59 2.05,1.73 1.85,2.09c-0.12,0.23 -1.23,-0.68 -1.8,-0.87c-0.57,-0.2 -0.75,0.1 -0.26,0.51c0.78,0.64 1.31,1.06 2.59,1.5c1.3,0.43 1.94,2.23 1.54,4.78c-0.02,0.11 -0.24,0.1 -0.37,0.05c-0.06,-0.97 -0.23,-2.14 -0.46,-2.65c-0.31,-0.68 -0.91,-0.69 -0.69,0.22c0.18,0.73 0.28,1.51 0.15,2.48c-1.06,-0.18 -1.47,-0.47 -1.92,-0.73c-0.04,-0.5 0.21,-1.31 0.26,-2.04c0.03,-0.72 -0.38,-1.17 -0.62,-0.27c-0.23,0.86 -0.38,1.28 -0.53,1.9c-0.3,-0.1 -0.63,-0.24 -0.78,-0.41l-0.07,-1.76c-0.08,-0.79 -0.38,-0.77 -0.62,-0.07c-0.11,0.32 -0.2,0.75 -0.23,1.27c-0.37,-0.23 -0.63,-0.66 -0.67,-1.01c0.05,-0.83 0.2,-1.71 0.3,-2.26c0.07,-0.4 -0.2,-1.2 -0.51,-0.23c-0.22,0.69 -0.28,1.28 -0.42,1.77c-0.27,-0.02 -0.63,-1.6 -0.82,-2.61c-0.08,-0.47 -0.46,-0.99 -0.53,0.03c-0.08,1.13 0.16,2.27 0.44,2.78c-0.55,-0.06 -1.07,-1.05 -1.45,-1.62c-0.34,-0.51 -0.5,0.02 -0.47,0.22c0.33,2.01 1.93,2.73 2.66,2.87c1.13,1.62 3.27,2.31 5.09,3.09c-2.36,-0.03 -2.98,0.93 -4.06,0.31c0.05,0.89 0.49,1.3 0.91,1.51c0.31,0.14 0.6,0.18 0.74,0.21c0.2,1.08 1.23,1.02 2.1,1.08c-0.23,2.11 0.03,4.89 1.88,6.97c-0.05,1.06 -0.13,2.47 -0.11,3.4c-1.52,1.4 -2.87,4.35 -3.4,5.98c-0.4,1.22 -1,2.17 -1.93,2.62c0.76,0.8 1.89,0.4 2.53,-0.05c0.05,0.72 0.21,1.23 0.33,1.65c-0.44,0.64 -0.73,1.09 -0.69,1.88c-0.49,0.14 -0.83,0.44 -1.1,0.77c-0.16,0.21 0.03,1.18 0.22,1.59c0.6,1.35 0.13,4.41 0.02,5.31c0.26,0.01 0.72,0.03 0.82,-0.35c0.14,0.14 0.51,0.41 0.68,0.99c-0.04,0.26 -0.18,1.2 0.3,1.31c0.39,0.1 2.09,0.05 2.32,-0.25c-0.17,-0.19 -0.47,-0.64 -0.65,-1.09c0,-0.47 -0.04,-1.03 -0.17,-1.27c-0.19,-0.34 -0.69,-1.12 -1,-1.43c-0.06,-0.57 -0.12,-3.05 0.14,-4.01c0.44,-0.3 3.43,-2.52 4.05,-4.65c0.55,0.19 0.38,1.67 0.38,3.59c0,0.52 0.63,0.78 1,0.82c0.81,0.1 1.97,0.87 3.26,2.79c0.25,-0.27 0.57,-0.52 0.57,-0.52c0.17,0.22 0.37,0.77 0.48,1.12c0.14,0.27 1.18,0.42 1.98,0.18c0.27,-0.09 0.42,-0.14 0.6,-0.42c-1.02,-1.77 -1.63,-2.94 -2.93,-3.92c-0.6,-0.45 -1.4,-0.68 -2.08,-1.11c0.45,-0.84 1.69,-4.8 0.94,-6.25c-0.25,-0.48 -1.19,-0.96 -2.34,-0.75c0.96,-1.15 2.91,-3.43 3.16,-4.12c0.22,0.26 1.37,0.08 2.23,0.41c0.31,0.13 1.18,1.26 1.22,1.65c0.08,0.7 0.12,1.53 -0.37,3.44c0.34,-0.05 0.29,-0.07 0.63,-0.21c0.05,0.52 -0.1,0.91 -0.55,1.69c0.11,0.68 0.42,1.75 0.75,1.95c0.43,-1.29 2.03,-3.13 1.99,-4.2c-0.06,-1.45 -0.74,-2.68 -0.66,-3.32" id="svg_36"/>
    </g>
  </g>
</svg>